<svg data-v-423bf9ae="" xmlns="http://www.w3.org/2000/svg" viewBox="0 0 428 90" class="iconLeft"><!----><!----><!----><g data-v-423bf9ae="" id="d3b0381d-5c37-4d10-aae9-309b9eb84737" fill="#321926" transform="matrix(4.491017758899723,0,0,4.491017758899723,105.21878081989428,1.93113817455324)"><path d="M2.98 3.58Q3.50 3.58 3.74 3.93Q3.98 4.27 3.98 5.18Q3.98 6.09 3.36 9.48L3.36 9.48L7.94 9.48Q8.32 6.86 8.32 5.68Q8.32 4.49 8.02 3.91L8.02 3.91Q8.16 3.78 8.45 3.68Q8.74 3.58 8.96 3.58L8.96 3.58Q9.45 3.58 9.68 3.92Q9.91 4.26 9.91 5.03Q9.91 5.81 9.37 9.05Q8.83 12.29 8.83 13.66Q8.83 15.02 9.37 15.62L9.37 15.62Q8.95 16.13 8.40 16.13L8.40 16.13Q7.31 16.13 7.31 14.28L7.31 14.28Q7.31 13.58 7.78 10.50L7.78 10.50L3.21 10.50Q2.90 12.46 2.90 13.76Q2.90 15.05 3.43 15.62L3.43 15.62Q3.00 16.13 2.46 16.13L2.46 16.13Q1.37 16.13 1.37 14.28L1.37 14.28Q1.37 13.51 1.87 10.28Q2.37 7.06 2.37 5.78Q2.37 4.49 2.07 3.91L2.07 3.91Q2.45 3.58 2.98 3.58ZM14.17 12.10L14.17 12.10Q13.79 12.10 13.41 12.05L13.41 12.05Q13.43 13.61 13.99 14.42Q14.56 15.23 15.58 15.23L15.58 15.23Q17.02 15.23 17.68 13.82L17.68 13.82Q18.02 14.14 18.02 14.60L18.02 14.60Q18.02 15.39 17.14 15.83Q16.27 16.27 15.32 16.27L15.32 16.27Q13.62 16.27 12.76 15.19Q11.90 14.11 11.90 12.40L11.90 12.40Q11.90 11.38 12.22 10.34Q12.54 9.30 13.10 8.42Q13.66 7.55 14.55 7.00Q15.43 6.45 16.48 6.45Q17.53 6.45 18.08 6.99Q18.63 7.52 18.63 8.36L18.63 8.36Q18.63 9.72 17.38 10.91Q16.13 12.10 14.17 12.10ZM17.16 8.82Q17.16 8.25 16.81 7.88Q16.45 7.50 15.83 7.50Q15.20 7.50 14.75 7.85Q14.29 8.20 14.03 8.79L14.03 8.79Q13.55 9.88 13.44 11.16L13.44 11.16Q13.78 11.20 14.07 11.20L14.07 11.20Q15.50 11.20 16.33 10.46Q17.16 9.73 17.16 8.82L17.16 8.82ZM23.09 4.35Q23.09 5.12 22.55 8.71Q22.01 12.29 22.01 13.67Q22.01 15.05 22.54 15.62L22.54 15.62Q22.11 16.13 21.57 16.13L21.57 16.13Q20.48 16.13 20.48 14.28L20.48 14.28Q20.48 13.59 20.98 10.19Q21.48 6.79 21.48 5.30Q21.48 3.81 21.18 3.22L21.18 3.22Q21.34 3.09 21.62 3.00Q21.91 2.91 22.12 2.91L22.12 2.91Q22.61 2.91 22.85 3.25Q23.09 3.58 23.09 4.35ZM27.73 4.35Q27.73 5.12 27.20 8.71Q26.66 12.29 26.66 13.67Q26.66 15.05 27.19 15.62L27.19 15.62Q26.75 16.13 26.22 16.13L26.22 16.13Q25.13 16.13 25.13 14.28L25.13 14.28Q25.13 13.59 25.63 10.19Q26.12 6.79 26.12 5.30Q26.12 3.81 25.83 3.22L25.83 3.22Q25.98 3.09 26.27 3.00Q26.56 2.91 26.77 2.91L26.77 2.91Q27.26 2.91 27.50 3.25Q27.73 3.58 27.73 4.35ZM33.18 7.50L33.18 7.50Q32.52 7.50 32.04 8.00Q31.56 8.50 31.32 9.25L31.32 9.25Q30.87 10.65 30.87 12.09Q30.87 13.52 31.46 14.38Q32.05 15.23 33.10 15.23L33.10 15.23Q33.77 15.23 34.26 14.74Q34.75 14.24 34.99 13.48L34.99 13.48Q35.43 12.04 35.43 10.62Q35.43 9.20 34.84 8.35Q34.24 7.50 33.18 7.50ZM32.41 16.27L32.41 16.27Q30.95 16.27 30.16 15.18Q29.36 14.08 29.36 12.40L29.36 12.40Q29.36 11.38 29.68 10.34Q30.00 9.30 30.56 8.42Q31.12 7.55 32.00 7.00Q32.89 6.45 33.91 6.45L33.91 6.45Q35.36 6.45 36.16 7.55Q36.95 8.64 36.95 10.32L36.95 10.32Q36.95 12.04 36.16 13.58L36.16 13.58Q35.31 15.25 33.96 15.92L33.96 15.92Q33.24 16.27 32.41 16.27ZM47.05 3.89L47.05 3.89L49.32 3.92Q51.00 3.92 51.56 3.65L51.56 3.65Q51.49 4.56 51.12 4.87Q50.75 5.17 49.95 5.17L49.95 5.17Q48.64 5.17 46.66 4.86L46.66 4.86Q46.66 5.80 46.07 9.32L46.07 9.32Q48.82 9.30 49.66 8.86L49.66 8.86Q49.57 9.97 49.03 10.23L49.03 10.23Q48.73 10.39 48.47 10.42Q48.20 10.46 47.82 10.46Q47.45 10.46 45.91 10.33L45.91 10.33Q45.47 13.12 45.47 14.46L45.47 14.46Q45.47 14.74 45.49 14.87L45.49 14.87Q46.63 14.92 47.42 14.92L47.42 14.92Q50.06 14.92 50.75 14.56L50.75 14.56Q50.71 15.12 50.56 15.46Q50.41 15.79 50.08 15.95Q49.74 16.10 49.43 16.14Q49.11 16.17 48.42 16.17Q47.73 16.17 45.67 15.88L45.67 15.88Q45.29 16.14 44.91 16.14L44.91 16.14Q43.90 16.14 43.90 14.78L43.90 14.78Q43.90 13.90 44.53 10.26L44.53 10.26Q44.31 10.25 43.82 10.25L43.82 10.25Q43.89 9.73 44.04 9.55Q44.20 9.38 44.69 9.34L44.69 9.34Q45.08 6.86 45.08 5.89Q45.08 4.91 44.87 4.28L44.87 4.28Q45.36 3.89 47.05 3.89ZM52.25 3.58L52.25 3.58Q52.91 3.58 53.32 3.94Q53.73 4.30 54.00 5.18Q54.26 6.06 54.59 9.39Q54.91 12.73 55.29 13.99L55.29 13.99Q55.64 13.15 56.71 11.01Q57.79 8.88 58.48 7.25Q59.16 5.63 59.16 4.77L59.16 4.77Q59.16 4.37 59.00 4.09L59.00 4.09Q59.33 3.58 59.96 3.58Q60.59 3.58 60.59 4.27Q60.59 4.96 59.91 6.54Q59.22 8.12 58.41 9.71Q57.60 11.30 56.91 12.97Q56.22 14.64 56.22 15.47L56.22 15.47Q56.22 15.61 56.25 15.81L56.25 15.81Q56.03 16.13 55.36 16.13Q54.68 16.13 54.36 15.86Q54.04 15.58 53.80 14.81Q53.56 14.03 53.25 10.65Q52.93 7.28 52.53 5.88L52.53 5.88Q52.23 4.84 51.32 4.09L51.32 4.09Q51.45 3.85 51.73 3.72Q52.01 3.58 52.25 3.58ZM71.71 5.04Q71.71 5.81 71.17 9.05Q70.63 12.29 70.63 13.66Q70.63 15.02 71.16 15.62L71.16 15.62Q70.73 16.13 70.20 16.13L70.20 16.13Q69.10 16.13 69.10 14.28L69.10 14.28Q69.10 13.52 69.61 10.27Q70.11 7.01 70.11 5.67L70.11 5.67Q68.05 9.80 67.70 10.89Q67.35 11.97 67.35 12.47L67.35 12.47Q67.35 12.59 67.38 12.81L67.38 12.81Q67.28 12.94 67.00 13.03Q66.71 13.13 66.42 13.13L66.42 13.13Q65.80 13.13 65.47 12.73Q65.14 12.33 64.88 11.25Q64.61 10.16 64.26 8.62Q63.91 7.08 63.62 6.01L63.62 6.01Q63.59 6.27 63.09 9.33Q62.59 12.39 62.59 13.71Q62.59 15.02 63.14 15.62L63.14 15.62Q62.94 16.13 62.37 16.13L62.37 16.13Q61.35 16.13 61.35 14.28L61.35 14.28Q61.35 13.51 61.84 10.28Q62.34 7.06 62.34 5.78Q62.34 4.49 62.05 3.91L62.05 3.91Q62.37 3.58 63.03 3.59Q63.69 3.60 64.16 3.97Q64.62 4.34 64.88 5.19Q65.14 6.03 65.57 8.05Q66.00 10.07 66.42 11.41L66.42 11.41Q66.72 10.57 67.54 8.87Q68.35 7.17 68.91 5.86Q69.47 4.55 69.47 3.98L69.47 3.98Q69.92 3.58 70.76 3.58L70.76 3.58Q71.23 3.58 71.47 3.93Q71.71 4.27 71.71 5.04Z"></path></g><defs data-v-423bf9ae=""><linearGradient data-v-423bf9ae="" gradientTransform="rotate(25)" id="951520b9-8756-40e1-bfd8-08dc7c29c87c" x1="0%" y1="0%" x2="100%" y2="0%"><stop data-v-423bf9ae="" offset="0%" style="stop-color: rgb(212, 24, 234); stop-opacity: 1;"></stop><stop data-v-423bf9ae="" offset="100%" style="stop-color: rgb(236, 208, 98); stop-opacity: 1;"></stop></linearGradient></defs><g data-v-423bf9ae="" id="4780039a-3301-40a3-88f2-a8c1cc99d7f7" transform="matrix(1.18231245935841,0,0,1.18231245935841,-12.756621634385823,-13.176628302059214)" stroke="none" fill="url(#951520b9-8756-40e1-bfd8-08dc7c29c87c)"><path d="M78.268 32.181H57.521L47.148 50.146l10.373 17.966h20.747l10.373-17.966zM21.732 52.129L11.359 70.095l10.373 17.966h20.746l10.373-17.966-10.373-17.966zM42.478 47.871l10.373-17.966-10.373-17.966H21.732L11.359 29.905l10.373 17.966z"></path></g><!----></svg>